<?xml version="1.0" standalone="no"?>
<!DOCTYPE svg PUBLIC "-//W3C//DTD SVG 20010904//EN"
 "http://www.w3.org/TR/2001/REC-SVG-20010904/DTD/svg10.dtd">
<svg version="1.0" xmlns="http://www.w3.org/2000/svg"
 width="1074.000000pt" height="1074.000000pt" viewBox="0 0 1074.000000 1074.000000"
 preserveAspectRatio="xMidYMid meet">
<metadata>
Created by potrace 1.11, written by Peter Selinger 2001-2013
</metadata>
<g transform="translate(0.000000,1074.000000) scale(0.100000,-0.100000)"
fill="#000000" stroke="none">
<path d="M4349 9653 c-41 -54 -79 -104 -86 -113 -24 -30 -1287 -1687 -1347
-1767 l-61 -82 -50 -1 c-27 -1 -63 -3 -80 -5 -16 -2 -55 -7 -85 -10 -118 -13
-280 -63 -394 -120 -266 -135 -437 -339 -507 -605 -32 -123 -42 -289 -25 -441
7 -63 36 -189 48 -212 12 -23 -6 -50 -150 -232 -4 -5 -34 -46 -67 -90 -33 -44
-62 -82 -65 -85 -3 -3 -76 -97 -162 -210 -85 -113 -246 -324 -357 -470 -112
-146 -212 -278 -224 -294 -12 -16 -29 -37 -37 -47 -8 -10 -43 -56 -77 -101
-35 -46 -120 -157 -189 -248 -69 -91 -135 -178 -147 -194 -12 -16 -71 -93
-130 -170 -60 -78 -118 -153 -128 -168 l-19 -26 161 -124 c89 -68 205 -157
259 -198 54 -41 152 -116 218 -167 l120 -91 20 21 c10 12 90 117 177 232 192
253 218 289 226 295 3 3 58 75 122 160 185 245 267 353 285 375 9 11 42 54 72
95 30 41 65 86 78 100 21 22 23 22 18 5 -3 -11 -8 -42 -11 -70 -3 -27 -8 -61
-10 -75 -4 -26 -13 -87 -20 -150 -4 -33 -10 -89 -20 -168 -2 -18 -7 -77 -10
-131 l-7 -99 43 -32 c24 -18 78 -48 119 -68 41 -20 77 -38 80 -40 2 -2 -29
-35 -70 -74 -85 -80 -345 -325 -400 -378 -37 -36 -268 -254 -372 -352 -67 -64
-325 -308 -344 -326 -18 -17 -19 -15 18 -54 18 -19 74 -77 123 -129 79 -84
150 -158 432 -457 l69 -72 64 61 c36 34 99 93 140 132 41 39 149 141 240 228
91 86 183 173 205 194 22 20 105 99 185 175 80 76 166 157 191 181 81 76 311
294 394 373 70 67 91 81 116 78 114 -14 411 -19 474 -8 17 3 54 8 84 11 30 4
63 9 75 11 12 2 36 7 55 10 19 3 45 10 58 15 13 5 23 7 23 4 0 -10 209 70 290
110 153 77 305 208 389 334 l36 54 3 -99 3 -100 122 1 122 0 0 -84 0 -84 -195
-124 c-107 -68 -285 -180 -395 -250 -110 -69 -245 -155 -300 -190 -107 -69
-421 -269 -680 -433 -88 -56 -248 -157 -355 -225 -107 -68 -239 -151 -293
-186 -94 -59 -97 -62 -83 -83 8 -11 39 -59 68 -106 29 -47 75 -120 103 -162
27 -43 69 -108 93 -145 161 -257 235 -368 245 -365 11 3 128 76 327 203 41 27
242 154 445 283 204 129 408 259 455 289 47 30 155 98 240 152 85 54 178 112
205 130 28 18 194 124 370 235 176 112 349 222 385 245 70 45 497 316 930 590
146 92 296 188 334 212 76 49 76 49 98 -24 14 -47 12 -47 124 -43 l52 1 24
-63 24 -63 114 0 115 0 43 105 c53 131 38 94 150 377 l95 243 161 102 c89 56
180 114 203 129 86 57 79 67 77 -109 -2 -183 -1 -169 -16 -169 -42 -1 -377
-104 -404 -125 -16 -12 -15 -256 0 -261 6 -2 62 -3 124 -2 l112 1 1 -26 c0
-14 0 -51 -1 -82 l-1 -58 33 -1 c18 0 66 0 106 0 l72 0 0 -64 0 -64 65 2 c36
1 65 1 65 0 0 -6 -81 -43 -95 -43 -8 0 -15 -4 -15 -10 0 -5 -5 -10 -12 -10 -7
0 -163 -66 -348 -146 -413 -181 -579 -253 -880 -383 -129 -56 -248 -108 -265
-116 -16 -7 -88 -39 -160 -70 -183 -80 -198 -86 -220 -95 -11 -5 -55 -25 -98
-44 -44 -20 -81 -36 -83 -36 -3 0 -24 -9 -47 -19 -23 -11 -148 -65 -277 -121
-129 -56 -253 -110 -275 -120 -22 -10 -110 -48 -195 -85 -85 -37 -173 -75
-195 -85 -72 -33 -147 -66 -322 -141 -95 -40 -173 -79 -173 -85 0 -6 11 -36
24 -65 40 -89 197 -449 226 -519 36 -84 108 -248 120 -271 9 -16 12 -16 47 1
21 10 121 54 223 98 102 44 205 89 230 100 116 51 139 61 200 87 36 15 93 40
128 56 35 16 65 29 67 29 3 0 28 11 57 24 29 13 123 54 208 91 85 37 179 78
208 91 28 13 80 36 115 50 34 14 80 34 102 44 22 10 126 55 230 100 105 45
210 92 235 103 45 20 299 131 580 252 80 35 172 75 205 89 33 15 69 31 80 36
11 5 106 46 210 91 105 45 208 90 230 99 22 10 202 89 400 175 198 86 396 172
440 192 144 63 159 70 225 98 36 15 88 38 115 50 28 12 178 78 335 145 157 68
289 127 294 131 7 6 -89 241 -189 464 -13 28 -42 95 -65 150 -24 55 -58 133
-76 173 -19 41 -34 78 -34 83 0 5 -3 9 -8 9 -7 0 -456 -194 -481 -208 -8 -5
-33 -2 -58 7 l-43 16 0 615 0 615 73 45 c64 40 529 334 567 360 8 5 105 67
215 136 110 69 223 141 250 159 28 17 145 92 260 165 486 308 457 287 444 313
-7 12 -15 24 -18 27 -3 3 -13 17 -21 31 -8 14 -55 90 -105 168 -49 78 -97 153
-105 166 -8 14 -68 108 -134 210 l-118 186 -27 -17 c-14 -10 -154 -99 -311
-199 -157 -100 -376 -240 -487 -311 -112 -71 -211 -134 -220 -139 -10 -6 -36
-22 -58 -36 -22 -14 -77 -49 -122 -78 l-83 -51 0 320 c0 248 3 321 13 324 59
15 311 103 347 120 l45 21 2 115 c1 63 -1 122 -3 130 -3 13 -21 16 -92 15 -48
-1 -93 1 -99 3 -9 3 -13 25 -13 63 l0 59 -125 0 -125 0 0 84 0 85 -537 -2
-536 -2 -27 -65 c-29 -70 -364 -912 -366 -920 0 -3 -4 -14 -9 -25 -12 -28
-270 -682 -312 -790 -19 -49 -39 -99 -44 -110 -4 -11 -46 -116 -93 -233 l-84
-214 -32 84 c-17 46 -42 110 -55 143 -13 33 -47 123 -75 200 -29 77 -58 154
-65 170 -15 37 -24 61 -171 445 -64 168 -120 317 -124 332 -7 22 -3 31 28 58
21 18 105 97 187 175 83 79 173 165 201 192 101 95 474 448 627 594 43 41 98
92 121 114 69 65 366 347 406 385 20 19 101 96 180 170 79 74 160 151 180 170
20 19 73 70 118 113 45 42 83 81 85 86 1 5 -57 71 -129 147 -73 77 -151 159
-174 184 -23 25 -106 112 -184 193 -77 82 -142 153 -144 158 -10 26 -14 22
-258 -210 -264 -251 -413 -392 -444 -421 -33 -31 -259 -245 -435 -412 -44 -42
-98 -93 -120 -113 -22 -21 -107 -102 -190 -180 -82 -79 -170 -162 -195 -185
-25 -23 -112 -106 -195 -185 -82 -78 -168 -159 -189 -179 -36 -34 -44 -37 -89
-34 l-49 3 -31 82 -31 82 -602 -1 -601 0 0 -130 0 -130 46 -20 c25 -11 81 -32
123 -46 l78 -27 0 -36 c0 -39 6 -43 143 -94 26 -10 47 -22 48 -26 0 -5 1 -126
2 -270 l2 -261 -154 -147 c-84 -80 -170 -162 -190 -181 -21 -19 -82 -78 -137
-130 -55 -52 -165 -156 -244 -230 -150 -142 -218 -207 -286 -271 -40 -39 -41
-39 -70 -24 -33 18 -99 61 -240 157 -127 85 -154 101 -364 207 -136 69 -186
100 -223 138 l-47 49 40 54 c50 67 52 70 189 250 61 80 139 182 174 228 34 45
70 92 81 105 10 12 32 41 49 65 17 23 34 39 38 35 7 -7 45 -132 103 -338 l23
-80 101 -3 102 -3 21 -72 c12 -40 26 -77 31 -84 5 -7 38 -11 84 -10 41 0 78
-4 83 -9 5 -5 16 -34 24 -64 l16 -55 113 2 c62 1 116 2 120 2 5 1 22 76 18 83
-1 2 3 15 8 29 6 14 13 43 16 64 4 21 15 88 26 149 10 61 21 127 24 146 2 19
10 71 16 115 18 131 19 137 26 220 10 122 12 203 5 212 -6 9 -102 52 -163 74
-27 9 -38 19 -38 34 0 23 -50 49 -170 89 -61 20 -76 29 -81 50 -4 13 -4 28 -1
31 4 4 -4 15 -17 25 l-24 18 109 143 c60 79 114 151 121 159 7 8 111 146 233
305 218 287 285 375 430 565 57 75 300 394 361 476 5 6 -18 30 -59 61 -37 28
-119 90 -182 138 -162 125 -385 294 -450 343 -30 23 -58 42 -61 42 -4 0 -40
-44 -80 -97z m1536 -4493 c43 -113 89 -234 102 -270 12 -36 27 -74 32 -85 5
-11 32 -79 59 -152 l50 -131 -47 -30 c-25 -16 -115 -73 -200 -126 -84 -54
-159 -100 -166 -102 -9 -4 -12 143 -12 683 l0 688 52 -135 c28 -74 87 -227
130 -340z m-3337 346 c171 -112 412 -250 570 -326 83 -41 152 -77 152 -80 0
-3 -53 -56 -117 -117 -65 -61 -143 -134 -173 -163 -91 -85 -210 -199 -292
-277 -42 -41 -79 -70 -81 -66 -3 4 -12 35 -21 68 -9 33 -19 67 -21 75 -2 8
-10 35 -16 60 -6 25 -15 49 -20 54 -4 5 -45 9 -90 10 l-82 1 -16 60 -16 60
-98 1 c-113 1 -108 -3 -133 94 -17 63 -30 84 -46 74 -23 -15 5 27 129 191 75
99 142 185 148 192 5 6 33 43 60 82 28 38 53 70 58 70 4 1 51 -28 105 -63z
m2295 -797 c0 -295 -3 -540 -6 -546 -4 -6 -22 -14 -42 -17 -43 -8 -223 -66
-294 -95 -49 -20 -53 -20 -46 -4 27 62 74 217 80 263 4 30 9 64 12 75 2 11 4
74 4 140 0 130 -20 266 -50 345 l-19 50 67 64 c221 213 277 265 285 263 6 -2
9 -220 9 -538z"/>
</g>
</svg>
