<svg xmlns="http://www.w3.org/2000/svg" viewBox="0 0 246.31 246.31"><defs><style>.cls-1{fill:none;stroke:#fff;stroke-miterlimit:10;stroke-width:18.66px;}</style></defs><title>aboutLogo</title><g id="Layer_1" data-name="Layer 1"><rect class="cls-1" x="9.33" y="9.33" width="227.65" height="227.65" rx="12" ry="12"/><path class="cls-1" d="M95.68,96.45c0-23.19,13.2-42,36.39-42s34.52,18.8,34.52,42-11.34,42-34.52,42S95.68,119.63,95.68,96.45Z" transform="translate(-7.05 -6.88)"/><path class="cls-1" d="M42.5,239.19S30.25,216.74,63,176.68c8.39-10.26,44.78-20.52,44.78-20.52l.93-24.26" transform="translate(-7.05 -6.88)"/><path class="cls-1" d="M218.46,239.19s12.25-22.45-20.52-62.51c-8.4-10.26-44.79-20.52-44.79-20.52l-.93-24.26" transform="translate(-7.05 -6.88)"/><path class="cls-1" d="M79.82,239.19s.93-22.39,8.4-28.92" transform="translate(-7.05 -6.88)"/><path class="cls-1" d="M186.18,239.19s-.93-22.39-8.4-28.92" transform="translate(-7.05 -6.88)"/></g></svg>